# xmcd
#
# Track frame offsets:
#	150
#	20033
#	48584
#	84559
#	125451
#	159248
#	195249
#
# Disc length: 3083 seconds
#
# Revision: 0
# Processed by: cddbd v1.5.2PL0 Copyright (c) Steve Scherf et al.
# Submitted via: EasyCDDAExtractor 2011.0.0.0
#
DISCID=500c0907
DTITLE=Sosua and Mad - Supaconstellation
DYEAR=2009
DGENRE=House
TTITLE0=Supaconstellation (Air mix) [Original radio edit]
TTITLE1=Supaconstellation (Wez Clarke Re-master)
TTITLE2=Supaconstellation (Raul Rincon remix)
TTITLE3=Supaconstellation (P.I.P. remix)
TTITLE4=Supaconstellation (Club Mix) [original extended]
TTITLE5=Supaconstellation (Raul Rincon Late Nite dub mix)
TTITLE6=Supaconstellation (Raul Rincon instrumental)
EXTD=
EXTT0=
EXTT1=
EXTT2=
EXTT3=
EXTT4=
EXTT5=
EXTT6=
PLAYORDER=
